#Comment line ignore any data following # character 
#Hierarchical Translation and Rotation (.htr) file 
[Header]	
#Header keywords are followed by a single value 
FileType HTR		#Single word string
DataType HTRS		#Translation followed by rotation and scale data
FileVersion 1		#integer
NumSegments 84		#integer
NumFrames 2		#integer
DataFrameRate 30		#integer, data frame rate in this file
EulerRotationOrder ZYX
CalibrationUnits mm
RotationUnits Degrees
GlobalAxisofGravity Y
BoneLengthAxis Y
ScaleFactor 1.00
[SegmentNames&Hierarchy]
#CHILD	PARENT
MASTER GLOBAL
root MASTER
chest root
L_mid_tent01 root
R_mid_tent01 root
spine01 root
Bip01_Neck chest
L_humerus chest
R_humerus chest
weapon_bone chest
Bip01_Head Bip01_Neck
eye_left_bone Bip01_Head
eye_right_bone Bip01_Head
L_forearm L_humerus
L_front_hand L_forearm
L_weapon_bone L_forearm
L_front_hand01_01 L_front_hand
L_front_hand02_01 L_front_hand
L_front_hand03_01 L_front_hand
L_front_hand01_02 L_front_hand01_01
L_front_hand02_02 L_front_hand02_01
L_front_hand03_02 L_front_hand03_01
R_forearm R_humerus
R_front_hand R_forearm
R_weapon_bone R_forearm
R_front_hand01_01 R_front_hand
R_front_hand02_01 R_front_hand
R_front_hand03_01 R_front_hand
R_front_hand01_02 R_front_hand01_01
R_front_hand02_02 R_front_hand02_01
R_front_hand03_02 R_front_hand03_01
null_rope01_connect L_mid_tent01
Rope1_Seg01 null_rope01_connect
Rope1_Seg02 Rope1_Seg01
Rope1_Seg03 Rope1_Seg02
Rope1_Seg04 Rope1_Seg03
Rope1_Seg05 Rope1_Seg04
Rope1_Seg06 Rope1_Seg05
Rope1_Seg07 Rope1_Seg06
Rope1_Seg09 Rope1_Seg07
L_mid_hand01 Rope1_Seg09
L_mid_hand02 Rope1_Seg09
L_mid_hand03 Rope1_Seg09
null_rope02_connect R_mid_tent01
Rope2_Seg01 null_rope02_connect
Rope2_Seg02 Rope2_Seg01
Rope2_Seg03 Rope2_Seg02
Rope2_Seg04 Rope2_Seg03
Rope2_Seg05 Rope2_Seg04
Rope2_Seg06 Rope2_Seg05
Rope2_Seg07 Rope2_Seg06
Rope2_Seg09 Rope2_Seg07
R_mid_hand01 Rope2_Seg09
R_mid_hand02 Rope2_Seg09
R_mid_hand03 Rope2_Seg09
spine02 spine01
spine03 spine02
pelvis spine03
null_rope03_connect pelvis
null_rope04_connect pelvis
Rope3_Seg01 null_rope03_connect
Rope3_Seg02 Rope3_Seg01
Rope3_Seg03 Rope3_Seg02
Rope3_Seg04 Rope3_Seg03
Rope3_Seg05 Rope3_Seg04
Rope3_Seg06 Rope3_Seg05
Rope3_Seg07 Rope3_Seg06
Rope3_Seg08 Rope3_Seg07
Rope3_Seg09 Rope3_Seg08
R_rear_hand01 Rope3_Seg09
R_rear_hand02 Rope3_Seg09
R_rear_hand03 Rope3_Seg09
Rope4_Seg01 null_rope04_connect
Rope4_Seg02 Rope4_Seg01
Rope4_Seg03 Rope4_Seg02
Rope4_Seg04 Rope4_Seg03
Rope4_Seg05 Rope4_Seg04
Rope4_Seg06 Rope4_Seg05
Rope4_Seg07 Rope4_Seg06
Rope4_Seg08 Rope4_Seg07
Rope4_Seg09 Rope4_Seg08
L_rear_hand01 Rope4_Seg09
L_rear_hand02 Rope4_Seg09
L_rear_hand03 Rope4_Seg09
[BasePosition]
#SegmentName Tx, Ty, Tz, Rx, Ry, Rz, BoneLength
MASTER 0.000000 0.000000 0.000000 -90.000000 0.000000 0.000000 10.000000 
root 0.000000 0.000000 0.000000 0.000000 0.000000 0.000000 10.000000 
chest 0.000000 0.000000 0.000000 0.000000 0.000000 0.000000 10.000000 
L_mid_tent01 0.000000 0.000000 0.000000 0.000000 0.000000 0.000000 10.000000 
R_mid_tent01 0.000000 0.000000 0.000000 0.000000 0.000000 0.000000 10.000000 
spine01 0.000000 0.000000 0.000000 0.000000 0.000000 0.000000 10.000000 
Bip01_Neck 0.000000 0.000000 0.000000 0.000000 0.000000 0.000000 10.000000 
L_humerus 0.000000 0.000000 0.000000 0.000000 0.000000 0.000000 10.000000 
R_humerus 0.000000 0.000000 0.000000 0.000000 0.000000 0.000000 10.000000 
weapon_bone 0.000000 0.000000 0.000000 0.000000 0.000000 0.000000 10.000000 
Bip01_Head 0.000000 0.000000 0.000000 0.000000 0.000000 0.000000 10.000000 
eye_left_bone 0.000000 0.000000 0.000000 0.000000 0.000000 0.000000 10.000000 
eye_right_bone 0.000000 0.000000 0.000000 0.000000 0.000000 0.000000 10.000000 
L_forearm 0.000000 0.000000 0.000000 0.000000 0.000000 0.000000 10.000000 
L_front_hand 0.000000 0.000000 0.000000 0.000000 0.000000 0.000000 10.000000 
L_weapon_bone 0.000000 0.000000 0.000000 0.000000 0.000000 0.000000 10.000000 
L_front_hand01_01 0.000000 0.000000 0.000000 0.000000 0.000000 0.000000 10.000000 
L_front_hand02_01 0.000000 0.000000 0.000000 0.000000 0.000000 0.000000 10.000000 
L_front_hand03_01 0.000000 0.000000 0.000000 0.000000 0.000000 0.000000 10.000000 
L_front_hand01_02 0.000000 0.000000 0.000000 0.000000 0.000000 0.000000 10.000000 
L_front_hand02_02 0.000000 0.000000 0.000000 0.000000 0.000000 0.000000 10.000000 
L_front_hand03_02 0.000000 0.000000 0.000000 0.000000 0.000000 0.000000 10.000000 
R_forearm 0.000000 0.000000 0.000000 0.000000 0.000000 0.000000 10.000000 
R_front_hand 0.000000 0.000000 0.000000 0.000000 0.000000 0.000000 10.000000 
R_weapon_bone 0.000000 0.000000 0.000000 0.000000 0.000000 0.000000 10.000000 
R_front_hand01_01 0.000000 0.000000 0.000000 0.000000 0.000000 0.000000 10.000000 
R_front_hand02_01 0.000000 0.000000 0.000000 0.000000 0.000000 0.000000 10.000000 
R_front_hand03_01 0.000000 0.000000 0.000000 0.000000 0.000000 0.000000 10.000000 
R_front_hand01_02 0.000000 0.000000 0.000000 0.000000 0.000000 0.000000 10.000000 
R_front_hand02_02 0.000000 0.000000 0.000000 0.000000 0.000000 0.000000 10.000000 
R_front_hand03_02 0.000000 0.000000 0.000000 0.000000 0.000000 0.000000 10.000000 
null_rope01_connect 0.000000 0.000000 0.000000 0.000000 0.000000 0.000000 10.000000 
Rope1_Seg01 0.000000 0.000000 0.000000 0.000000 0.000000 0.000000 10.000000 
Rope1_Seg02 0.000000 0.000000 0.000000 0.000000 0.000000 0.000000 10.000000 
Rope1_Seg03 0.000000 0.000000 0.000000 0.000000 0.000000 0.000000 10.000000 
Rope1_Seg04 0.000000 0.000000 0.000000 0.000000 0.000000 0.000000 10.000000 
Rope1_Seg05 0.000000 0.000000 0.000000 0.000000 0.000000 0.000000 10.000000 
Rope1_Seg06 0.000000 0.000000 0.000000 0.000000 0.000000 0.000000 10.000000 
Rope1_Seg07 0.000000 0.000000 0.000000 0.000000 0.000000 0.000000 10.000000 
Rope1_Seg09 0.000000 0.000000 0.000000 0.000000 0.000000 0.000000 10.000000 
L_mid_hand01 0.000000 0.000000 0.000000 0.000000 0.000000 0.000000 10.000000 
L_mid_hand02 0.000000 0.000000 0.000000 0.000000 0.000000 0.000000 10.000000 
L_mid_hand03 0.000000 0.000000 0.000000 0.000000 0.000000 0.000000 10.000000 
null_rope02_connect 0.000000 0.000000 0.000000 0.000000 0.000000 0.000000 10.000000 
Rope2_Seg01 0.000000 0.000000 0.000000 0.000000 0.000000 0.000000 10.000000 
Rope2_Seg02 0.000000 0.000000 0.000000 0.000000 0.000000 0.000000 10.000000 
Rope2_Seg03 0.000000 0.000000 0.000000 0.000000 0.000000 0.000000 10.000000 
Rope2_Seg04 0.000000 0.000000 0.000000 0.000000 0.000000 0.000000 10.000000 
Rope2_Seg05 0.000000 0.000000 0.000000 0.000000 0.000000 0.000000 10.000000 
Rope2_Seg06 0.000000 0.000000 0.000000 0.000000 0.000000 0.000000 10.000000 
Rope2_Seg07 0.000000 0.000000 0.000000 0.000000 0.000000 0.000000 10.000000 
Rope2_Seg09 0.000000 0.000000 0.000000 0.000000 0.000000 0.000000 10.000000 
R_mid_hand01 0.000000 0.000000 0.000000 0.000000 0.000000 0.000000 10.000000 
R_mid_hand02 0.000000 0.000000 0.000000 0.000000 0.000000 0.000000 10.000000 
R_mid_hand03 0.000000 0.000000 0.000000 0.000000 0.000000 0.000000 10.000000 
spine02 0.000000 0.000000 0.000000 0.000000 0.000000 0.000000 10.000000 
spine03 0.000000 0.000000 0.000000 0.000000 0.000000 0.000000 10.000000 
pelvis 0.000000 0.000000 0.000000 0.000000 0.000000 0.000000 10.000000 
null_rope03_connect 0.000000 0.000000 0.000000 0.000000 0.000000 0.000000 10.000000 
null_rope04_connect 0.000000 0.000000 0.000000 0.000000 0.000000 0.000000 10.000000 
Rope3_Seg01 0.000000 0.000000 0.000000 0.000000 0.000000 0.000000 10.000000 
Rope3_Seg02 0.000000 0.000000 0.000000 0.000000 0.000000 0.000000 10.000000 
Rope3_Seg03 0.000000 0.000000 0.000000 0.000000 0.000000 0.000000 10.000000 
Rope3_Seg04 0.000000 0.000000 0.000000 0.000000 0.000000 0.000000 10.000000 
Rope3_Seg05 0.000000 0.000000 0.000000 0.000000 0.000000 0.000000 10.000000 
Rope3_Seg06 0.000000 0.000000 0.000000 0.000000 0.000000 0.000000 10.000000 
Rope3_Seg07 0.000000 0.000000 0.000000 0.000000 0.000000 0.000000 10.000000 
Rope3_Seg08 0.000000 0.000000 0.000000 0.000000 0.000000 0.000000 10.000000 
Rope3_Seg09 0.000000 0.000000 0.000000 0.000000 0.000000 0.000000 10.000000 
R_rear_hand01 0.000000 0.000000 0.000000 0.000000 0.000000 0.000000 10.000000 
R_rear_hand02 0.000000 0.000000 0.000000 0.000000 0.000000 0.000000 10.000000 
R_rear_hand03 0.000000 0.000000 0.000000 0.000000 0.000000 0.000000 10.000000 
Rope4_Seg01 0.000000 0.000000 0.000000 0.000000 0.000000 0.000000 10.000000 
Rope4_Seg02 0.000000 0.000000 0.000000 0.000000 0.000000 0.000000 10.000000 
Rope4_Seg03 0.000000 0.000000 0.000000 0.000000 0.000000 0.000000 10.000000 
Rope4_Seg04 0.000000 0.000000 0.000000 0.000000 0.000000 0.000000 10.000000 
Rope4_Seg05 0.000000 0.000000 0.000000 0.000000 0.000000 0.000000 10.000000 
Rope4_Seg06 0.000000 0.000000 0.000000 0.000000 0.000000 0.000000 10.000000 
Rope4_Seg07 0.000000 0.000000 0.000000 0.000000 0.000000 0.000000 10.000000 
Rope4_Seg08 0.000000 0.000000 0.000000 0.000000 0.000000 0.000000 10.000000 
Rope4_Seg09 0.000000 0.000000 0.000000 0.000000 0.000000 0.000000 10.000000 
L_rear_hand01 0.000000 0.000000 0.000000 0.000000 0.000000 0.000000 10.000000 
L_rear_hand02 0.000000 0.000000 0.000000 0.000000 0.000000 0.000000 10.000000 
L_rear_hand03 0.000000 0.000000 0.000000 0.000000 0.000000 0.000000 10.000000 
#Beginning of Data. Separated by tabs
#Fr	Tx	Ty	Tz	Rx	Ry	Rz	SF
[MASTER]
28 0.000005 62.822109 0.000000 0.001660 0.001660 0.001660 62.822113
29 0.000005 62.822109 0.000000 0.001660 0.001660 0.001660 62.822113
[root]
28 -16.502295 -62.822117 1500.000000 -93.264534 -28.400034 -61.614029 1501.405640
29 -16.502295 -62.822117 1500.000000 -93.022942 -27.425194 -65.748047 1501.405640
[chest]
28 -84.512650 -34.090519 0.000000 3.333075 -14.731917 176.693420 91.129311
29 -84.512650 -34.090519 0.000000 2.417338 -12.988545 177.412842 91.129311
[L_mid_tent01]
28 27.299492 22.177538 -249.917999 -86.126633 69.704727 44.535332 252.380875
29 27.299488 22.177544 -249.917999 -75.692726 67.105980 49.821369 252.380875
[R_mid_tent01]
28 23.228794 24.509907 226.238495 140.413452 -2.961066 103.501961 228.744751
29 23.228794 24.509907 226.238495 142.661606 -8.672669 100.136742 228.744751
[spine01]
28 -0.361383 -0.195265 0.000000 0.008059 0.373957 12.579211 0.410763
29 -0.361383 -0.195265 0.000000 0.099763 0.383593 12.892990 0.410763
[Bip01_Neck]
28 165.484543 71.581718 0.000119 175.896118 1.177290 24.871183 180.302734
29 165.484543 71.581718 0.000119 175.896118 1.177290 24.871183 180.302734
[L_humerus]
28 -13.983130 -135.272980 -120.471481 54.128654 45.574467 151.799072 181.680161
29 -13.983130 -135.272980 -120.471481 51.830879 47.967213 148.757156 181.680161
[R_humerus]
28 -13.983309 -135.273102 125.287651 103.018517 -11.613068 -9.857503 184.909012
29 -13.983309 -135.273102 125.287651 106.236267 -16.613663 -15.788252 184.909012
[weapon_bone]
28 235.964890 -300.705902 0.000000 0.000000 -89.951546 -128.212341 382.234833
29 235.964890 -300.705902 0.000000 0.000000 -89.951546 -128.212341 382.234833
[Bip01_Head]
28 261.355804 108.959579 -2.864213 4.195500 5.844913 -62.455887 283.173523
29 261.355804 108.959587 -2.864212 2.248029 5.843377 -62.458344 283.173523
[eye_left_bone]
28 -24.626970 125.451866 -64.772606 0.000000 -90.000000 -99.840431 143.318359
29 -24.626970 125.451866 -64.772606 0.000000 -90.000000 -99.840431 143.318359
[eye_right_bone]
28 -24.626970 125.451866 64.327362 0.000000 -89.960434 80.159386 143.117676
29 -24.626970 125.451866 64.327362 0.000000 -89.960434 80.159386 143.117676
[L_forearm]
28 322.776093 0.000000 -0.000119 0.000183 0.002340 -81.045212 322.776093
29 322.776093 0.000000 -0.000119 0.000183 0.002340 -81.045212 322.776093
[L_front_hand]
28 241.149185 -0.042021 -3.300071 -178.663147 -1.834274 -27.422415 241.171753
29 241.149185 -0.042021 -3.300071 -178.663147 -1.834274 -27.422415 241.171753
[L_weapon_bone]
28 156.183838 0.000000 0.000000 0.001660 0.001660 0.001660 156.183838
29 156.183838 0.000000 0.000000 0.001660 0.001660 0.001660 156.183838
[L_front_hand01_01]
28 86.095154 20.947098 -0.655860 -0.363570 -0.473241 75.385536 88.609184
29 86.095154 20.947098 -0.655860 -0.363570 -0.473241 75.385529 88.609184
[L_front_hand02_01]
28 86.935165 -11.437475 24.513514 154.403519 -59.888931 -61.371990 91.046425
29 86.935165 -11.437475 24.513514 154.403519 -59.888931 -61.371990 91.046425
[L_front_hand03_01]
28 86.637497 -14.123976 -20.424902 -153.913849 58.118122 -62.702866 90.126129
29 86.637497 -14.123976 -20.424902 -153.913879 58.118130 -62.702892 90.126129
[L_front_hand01_02]
28 71.020905 -0.000179 0.000030 0.000334 -0.002323 -106.379684 71.020905
29 71.020905 -0.000179 0.000030 0.000334 -0.002323 -106.379684 71.020905
[L_front_hand02_02]
28 71.020927 -0.000119 0.000060 0.000334 -0.002323 -106.379684 71.020927
29 71.020927 -0.000119 0.000060 0.000334 -0.002323 -106.379684 71.020927
[L_front_hand03_02]
28 71.020905 -0.000060 0.000060 0.000334 -0.002323 -106.379684 71.020905
29 71.020905 -0.000060 0.000060 0.000334 -0.002323 -106.379684 71.020905
[R_forearm]
28 322.776428 -0.000060 0.000030 0.129215 -0.167632 -38.939339 322.776428
29 322.776428 -0.000060 0.000030 0.159209 -0.143130 -48.871216 322.776428
[R_front_hand]
28 238.847015 -0.006795 2.210259 -0.549059 1.632314 -7.338537 238.857239
29 238.847015 -0.006795 2.210259 -0.654951 1.592806 -11.094480 238.857239
[R_weapon_bone]
28 155.664093 0.002503 -0.000030 0.002497 -0.002704 -31.830994 155.664078
29 155.664093 0.002503 -0.000030 0.002497 -0.002704 -31.830994 155.664078
[R_front_hand01_01]
28 87.624611 14.231146 22.918642 -154.633484 -59.950607 61.746033 91.683487
29 87.624611 14.231146 22.918642 -154.633514 -59.950634 61.746063 91.683487
[R_front_hand02_01]
28 89.356956 14.367283 -19.491137 154.595840 58.306175 63.741730 92.579636
29 89.356956 14.367283 -19.491137 154.595825 58.306190 63.741745 92.579636
[R_front_hand03_01]
28 87.286232 -22.307278 -0.143439 0.162155 -0.423168 -75.767921 90.091743
29 87.286232 -22.307278 -0.143439 0.162155 -0.423168 -75.767921 90.091743
[R_front_hand01_02]
28 71.020905 0.000060 0.000119 0.002323 -0.000334 106.381714 71.020905
29 71.020905 0.000060 0.000119 0.002323 -0.000334 106.381714 71.020905
[R_front_hand02_02]
28 71.020844 -0.000030 -0.000119 0.002323 -0.000334 106.381714 71.020836
29 71.020844 -0.000030 -0.000119 0.002323 -0.000334 106.381714 71.020836
[R_front_hand03_02]
28 71.020905 0.000000 0.000030 0.002323 -0.000334 106.381714 71.020905
29 71.020905 0.000000 0.000030 0.002323 -0.000334 106.381714 71.020905
[null_rope01_connect]
28 328.732483 0.000000 -0.000238 169.494125 6.896690 -134.009140 328.732483
29 328.732483 0.000000 -0.000238 170.493820 0.876099 -135.616852 328.732483
[Rope1_Seg01]
28 0.000000 0.000000 0.000000 13.285034 -25.199167 -87.468544 0.000000
29 0.000000 0.000000 0.000000 9.046260 -22.659061 -83.545143 0.000000
[Rope1_Seg02]
28 139.999863 -0.000179 0.000000 1.477270 4.003079 -8.015439 139.999863
29 139.999863 -0.000179 0.000000 0.378411 3.823124 -5.480587 139.999863
[Rope1_Seg03]
28 139.999924 0.000060 -0.000060 4.987678 6.614381 -14.437765 139.999924
29 139.999924 0.000060 -0.000060 0.906486 5.855477 -8.606877 139.999924
[Rope1_Seg04]
28 139.999924 -0.000060 -0.000119 42.248089 10.668515 -26.471031 139.999924
29 139.999924 -0.000060 -0.000119 1.518870 11.251489 -15.096949 139.999924
[Rope1_Seg05]
28 139.999832 0.000119 -0.000060 77.079727 -11.159065 -19.407492 139.999832
29 139.999832 0.000119 -0.000060 61.570999 11.309643 -18.868744 139.999832
[Rope1_Seg06]
28 139.999954 0.000119 -0.000060 3.358903 -28.971846 20.718288 139.999954
29 139.999954 0.000119 -0.000060 63.816254 -16.784452 -8.412996 139.999954
[Rope1_Seg07]
28 139.999985 0.000060 0.000000 -2.906604 -25.273195 21.061462 139.999985
29 139.999985 0.000060 0.000000 2.577665 -18.079105 14.940089 139.999985
[Rope1_Seg09]
28 121.602913 0.000119 -0.000089 -89.793175 -1.359789 0.847147 121.602913
29 121.602913 0.000119 -0.000089 -89.793175 -1.359789 0.847147 121.602913
[L_mid_hand01]
28 103.859421 1.038730 8.195221 105.620987 -22.988335 -6.761933 104.187431
29 103.859421 1.038730 8.195221 105.620987 -22.988335 -6.761933 104.187431
[L_mid_hand02]
28 105.572853 -4.139662 -10.864139 -139.491974 20.327143 -21.528740 106.211075
29 105.572853 -4.139662 -10.864139 -139.491974 20.327143 -21.528740 106.211075
[L_mid_hand03]
28 104.641464 17.579376 -3.913581 -17.354424 7.255000 25.905664 106.179977
29 104.641464 17.579376 -3.913581 -17.354420 7.254997 25.905659 106.179977
[null_rope02_connect]
28 328.732849 0.000179 -0.000119 -79.685257 23.439373 82.550102 328.732849
29 328.732849 0.000179 -0.000119 -83.263908 28.804613 75.965752 328.732849
[Rope2_Seg01]
28 -0.000048 0.000148 0.000038 88.899521 62.390507 -151.634476 0.000160
29 -0.000047 0.000148 0.000034 98.452888 64.746017 -141.085220 0.000159
[Rope2_Seg02]
28 139.999741 -0.000060 -0.000119 -0.091300 -16.284689 1.033976 139.999756
29 139.999741 -0.000060 -0.000119 -0.017914 -16.389368 2.842695 139.999756
[Rope2_Seg03]
28 140.000107 0.000030 0.000000 -0.789874 -8.458519 -1.368220 140.000107
29 140.000107 0.000030 0.000000 -0.433028 -8.973263 0.229149 140.000107
[Rope2_Seg04]
28 139.999802 0.000000 -0.000060 -0.838450 -7.693857 0.846228 139.999802
29 139.999802 0.000000 -0.000060 -0.690149 -8.771106 1.775900 139.999802
[Rope2_Seg05]
28 139.999985 -0.000060 0.000119 -0.484239 -11.546457 5.490897 139.999985
29 139.999985 -0.000060 0.000119 -1.036143 -14.548689 6.324621 139.999985
[Rope2_Seg06]
28 139.999893 -0.000030 -0.000119 0.014124 -9.195801 4.720403 139.999893
29 139.999893 -0.000030 -0.000119 -0.623364 -10.988181 4.892536 139.999893
[Rope2_Seg07]
28 139.999893 0.000060 -0.000060 -0.141360 -4.998215 2.255457 139.999893
29 139.999893 0.000060 -0.000060 -0.493325 -5.694424 2.284390 139.999893
[Rope2_Seg09]
28 121.338966 0.000089 -0.000060 33.793236 -1.359788 -0.847141 121.338966
29 121.338966 0.000089 -0.000060 33.793236 -1.359788 -0.847141 121.338966
[R_mid_hand01]
28 104.680779 11.144459 -10.335981 -44.070736 19.764444 21.986286 105.778534
29 104.680779 11.144459 -10.335981 -44.070736 19.764444 21.986286 105.778534
[R_mid_hand02]
28 104.070427 2.443552 8.231699 74.148849 -24.768806 7.320621 104.424065
29 104.070427 2.443552 8.231699 74.148849 -24.768806 7.320621 104.424065
[R_mid_hand03]
28 106.028137 -11.221827 -5.996406 -166.566208 8.416404 -28.789036 106.788818
29 106.028137 -11.221827 -5.996406 -166.566208 8.416404 -28.789036 106.788818
[spine02]
28 129.756927 0.001550 0.000119 -0.104656 -3.977484 -6.352049 129.756927
29 129.756927 0.001550 0.000119 -0.121252 -3.986851 -6.121089 129.756927
[spine03]
28 79.115639 -0.000162 0.000000 1.907030 -2.965995 23.921797 79.115639
29 79.115639 -0.000144 0.000000 1.907030 -2.965995 23.921797 79.115639
[pelvis]
28 169.435242 0.051022 0.000000 43.635841 3.491601 -4.454215 169.435257
29 169.435242 0.051022 0.000000 27.978422 3.382019 -4.475596 169.435257
[null_rope03_connect]
28 -1.257226 -2.466202 137.391083 30.881590 -39.621716 50.116619 137.418976
29 -1.257226 -2.466202 137.391083 41.990211 -53.692543 42.921509 137.418976
[null_rope04_connect]
28 -1.259640 -2.480268 -137.844437 30.881590 -39.621716 50.116619 137.872513
29 -1.259640 -2.480268 -137.844437 41.990211 -53.692543 42.921509 137.872513
[Rope3_Seg01]
28 0.000000 0.000000 0.000000 -151.109940 -27.777882 -35.600674 0.000000
29 0.000000 0.000000 0.000000 -138.600754 -14.872272 -34.751232 0.000000
[Rope3_Seg02]
28 139.999924 -0.000119 0.000060 -45.328197 15.833099 -32.629036 139.999924
29 139.999924 -0.000119 0.000060 -42.091640 0.346066 -33.741692 139.999924
[Rope3_Seg03]
28 139.999924 -0.000119 0.000119 -25.290962 31.085196 -6.478012 139.999924
29 139.999924 -0.000119 0.000119 -60.750607 27.804855 -23.185690 139.999924
[Rope3_Seg04]
28 139.999924 0.000119 0.000000 -8.049680 16.181971 -2.571663 139.999924
29 139.999924 0.000119 0.000000 -15.005006 18.117025 -2.040313 139.999924
[Rope3_Seg05]
28 139.999924 -0.000238 0.000060 -10.497914 18.781973 -10.828996 139.999924
29 139.999924 -0.000238 0.000060 -17.524092 21.963991 -9.352868 139.999924
[Rope3_Seg06]
28 139.999893 -0.000119 -0.000060 -5.242440 14.256999 -5.490448 139.999893
29 139.999893 -0.000119 -0.000060 -6.011993 14.763613 -1.012532 139.999893
[Rope3_Seg07]
28 139.999771 0.000060 -0.000119 -1.457066 7.462474 -1.466340 139.999771
29 139.999771 0.000060 -0.000119 -1.587607 7.735306 0.836293 139.999771
[Rope3_Seg08]
28 139.999985 -0.000060 0.000000 -0.361972 4.253730 -0.729386 139.999985
29 139.999985 -0.000060 0.000000 -0.366999 4.322233 0.591639 139.999985
[Rope3_Seg09]
28 90.185997 -0.000179 -0.000060 89.793228 -1.359877 -0.847183 90.185997
29 90.185997 -0.000179 -0.000060 89.793228 -1.359877 -0.847183 90.185997
[R_rear_hand01]
28 103.366196 -6.073594 -10.757982 -160.090088 14.865479 -24.717995 104.101845
29 103.366196 -6.073594 -10.757982 -160.090088 14.865479 -24.717995 104.101845
[R_rear_hand02]
28 100.509819 12.039542 -7.992327 -35.711582 16.148796 24.170401 101.543350
29 100.509819 12.039542 -7.992327 -35.711582 16.148796 24.170401 101.543350
[R_rear_hand03]
28 101.539970 5.215704 5.435467 83.699936 -25.497597 6.583542 101.819031
29 101.539970 5.215704 5.435467 83.699936 -25.497597 6.583542 101.819031
[Rope4_Seg01]
28 0.000002 -0.000048 -0.000038 53.433308 30.198917 -92.189873 0.000061
29 0.000003 -0.000047 -0.000034 48.240147 23.422832 -101.382599 0.000058
[Rope4_Seg02]
28 139.999985 0.000060 0.000119 2.885916 6.315903 -8.667304 139.999985
29 139.999985 0.000060 0.000119 0.972565 5.000046 -8.905700 139.999985
[Rope4_Seg03]
28 139.999924 0.000000 -0.000238 5.275196 10.985186 -17.404291 139.999924
29 139.999924 0.000000 -0.000238 1.243419 8.840041 -16.900387 139.999924
[Rope4_Seg04]
28 139.999985 0.000000 0.000119 7.820681 19.521313 -25.849600 139.999985
29 139.999985 0.000000 0.000119 1.175033 18.222435 -25.526674 139.999985
[Rope4_Seg05]
28 139.999802 -0.000060 -0.000119 6.069839 2.985925 -20.905222 139.999802
29 139.999802 -0.000060 -0.000119 2.446236 5.421645 -20.642185 139.999802
[Rope4_Seg06]
28 139.999924 0.000000 0.000060 5.116366 -18.974607 -33.234913 139.999924
29 139.999924 0.000000 0.000060 0.840833 -14.107851 -37.327850 139.999924
[Rope4_Seg07]
28 139.999802 0.000000 0.000000 -7.392988 -15.578659 -26.788391 139.999802
29 139.999802 0.000000 0.000000 -14.790901 -9.334410 -31.191599 139.999802
[Rope4_Seg08]
28 139.999924 0.000000 0.000119 -9.505673 -2.658470 -9.687985 139.999924
29 139.999924 0.000000 0.000119 -11.418262 0.769705 -10.612548 139.999924
[Rope4_Seg09]
28 90.185791 0.000060 0.000060 -135.617828 2.228885 0.850567 90.185791
29 90.185791 0.000060 0.000060 -135.617828 2.228885 0.850567 90.185791
[L_rear_hand01]
28 101.696655 -8.392275 -7.654577 -36.242058 -14.765300 157.809067 102.329041
29 101.696655 -8.392275 -7.654577 -36.242065 -14.765306 157.809067 102.329041
[L_rear_hand02]
28 102.726799 -1.568258 5.773216 83.814362 23.151863 173.698151 102.900848
29 102.726799 -1.568258 5.773216 83.814362 23.151863 173.698151 102.900848
[L_rear_hand03]
28 104.552910 9.721220 -10.420293 -159.518845 -14.052428 -157.569275 105.519653
29 104.552910 9.721220 -10.420293 -159.518845 -14.052428 -157.569275 105.519653
